<mxfile host="65bd71144e" scale="1" border="50">
    <diagram id="46gFqRR7cMOW59YAce9c" name="Page-1">
        <mxGraphModel dx="253" dy="2048" grid="1" gridSize="10" guides="1" tooltips="1" connect="1" arrows="1" fold="1" page="1" pageScale="1" pageWidth="1600" pageHeight="900" background="none" math="0" shadow="0">
            <root>
                <mxCell id="0"/>
                <mxCell id="1" parent="0"/>
                <mxCell id="119" value="FLAG REG" style="rounded=0;whiteSpace=wrap;html=1;hachureGap=4;fontFamily=Helvetica;fontSize=12;fontStyle=1;points=[[0,0.23,0,0,0],[0,0.75,0,0,0],[0.25,0,0,0,0],[0.25,1,0,0,0],[0.5,0,0,0,0],[0.5,1,0,0,0],[0.75,0,0,0,0],[0.75,1,0,0,0]];" vertex="1" parent="1">
                    <mxGeometry x="1420" y="-1180" width="120" height="200" as="geometry"/>
                </mxCell>
                <mxCell id="29" value="&lt;p&gt;&lt;span&gt;ID&lt;/span&gt;&lt;/p&gt;" style="rounded=0;whiteSpace=wrap;html=1;points=[[0,0.11,0,0,0],[0,0.22,0,0,0],[0,0.33,0,0,0],[0,0.44,0,0,0],[0,0.56,0,0,0],[0,0.67,0,0,0],[0,0.78,0,0,0],[0,0.89,0,0,0],[1,0.08,0,0,0],[1,0.17,0,0,0],[1,0.25,0,0,0],[1,0.33,0,0,0],[1,0.42,0,0,0],[1,0.5,0,0,0],[1,0.58,0,0,0],[1,0.67,0,0,0],[1,0.75,0,0,0],[1,0.83,0,0,0],[1,0.92,0,0,0]];fontStyle=1" parent="1" vertex="1">
                    <mxGeometry x="490" y="-1640" width="320" height="320" as="geometry"/>
                </mxCell>
                <mxCell id="106" value="ACC" style="rounded=0;whiteSpace=wrap;html=1;strokeColor=default;fontFamily=Helvetica;fontSize=12;fontColor=default;fillColor=default;fontStyle=1;points=[[0,0.25,0,0,0],[0,0.75,0,0,0],[0.25,1,0,0,0],[0.5,0,0,0,0],[0.5,1,0,0,0]];" parent="1" vertex="1">
                    <mxGeometry x="1040" y="-1090" width="240" height="60" as="geometry"/>
                </mxCell>
                <mxCell id="114" style="edgeStyle=orthogonalEdgeStyle;rounded=0;sketch=0;hachureGap=4;jiggle=2;curveFitting=1;html=1;exitX=0;exitY=0.75;exitDx=0;exitDy=0;exitPerimeter=0;fontFamily=Helvetica;fontSize=12;fontColor=default;startArrow=classic;startFill=1;endArrow=none;endFill=0;" parent="1" source="106" edge="1">
                    <mxGeometry relative="1" as="geometry">
                        <mxPoint x="1000" y="-1045" as="targetPoint"/>
                    </mxGeometry>
                </mxCell>
                <mxCell id="115" value="clk" style="edgeLabel;html=1;align=center;verticalAlign=middle;resizable=0;points=[];fontSize=12;fontFamily=Helvetica;fontColor=default;" parent="114" vertex="1" connectable="0">
                    <mxGeometry x="-0.275" y="1" relative="1" as="geometry">
                        <mxPoint x="25" as="offset"/>
                    </mxGeometry>
                </mxCell>
                <mxCell id="110" value="CPU CTRL" style="rounded=0;whiteSpace=wrap;html=1;strokeColor=default;fontFamily=Helvetica;fontSize=12;fontColor=default;fillColor=none;labelPosition=center;verticalLabelPosition=bottom;align=center;verticalAlign=top;fontStyle=7;dashed=1;" parent="1" vertex="1">
                    <mxGeometry x="70" y="-1730" width="790" height="480" as="geometry"/>
                </mxCell>
                <mxCell id="116" style="edgeStyle=orthogonalEdgeStyle;rounded=0;sketch=0;hachureGap=4;jiggle=2;curveFitting=1;html=1;exitX=1;exitY=0.92;exitDx=0;exitDy=0;exitPerimeter=0;fontFamily=Helvetica;fontSize=12;fontColor=default;startArrow=none;startFill=0;endArrow=classic;endFill=1;entryX=0;entryY=0.25;entryDx=0;entryDy=0;entryPerimeter=0;" parent="1" source="29" target="106" edge="1">
                    <mxGeometry relative="1" as="geometry">
                        <mxPoint x="920" y="-1070" as="targetPoint"/>
                        <Array as="points">
                            <mxPoint x="920" y="-1346"/>
                            <mxPoint x="920" y="-1075"/>
                        </Array>
                    </mxGeometry>
                </mxCell>
                <mxCell id="117" value="en_acc" style="edgeLabel;html=1;align=center;verticalAlign=middle;resizable=0;points=[];fontSize=12;fontFamily=Helvetica;fontColor=default;" parent="116" vertex="1" connectable="0">
                    <mxGeometry x="-0.9491" y="-2" relative="1" as="geometry">
                        <mxPoint x="-38" y="-3" as="offset"/>
                    </mxGeometry>
                </mxCell>
                <mxCell id="118" value="en" style="edgeLabel;html=1;align=center;verticalAlign=middle;resizable=0;points=[];fontSize=12;fontFamily=Helvetica;fontColor=default;" parent="116" vertex="1" connectable="0">
                    <mxGeometry x="0.9255" y="2" relative="1" as="geometry">
                        <mxPoint x="30" as="offset"/>
                    </mxGeometry>
                </mxCell>
                <mxCell id="101" value="ALU" style="shape=trapezoid;perimeter=trapezoidPerimeter;whiteSpace=wrap;html=1;fixedSize=1;rounded=0;strokeColor=default;fontFamily=Helvetica;fontSize=12;fontColor=default;fillColor=default;flipV=1;fontStyle=1" parent="1" vertex="1">
                    <mxGeometry x="1000" y="-1280" width="320" height="120" as="geometry"/>
                </mxCell>
                <mxCell id="105" style="edgeStyle=orthogonalEdgeStyle;rounded=0;sketch=0;hachureGap=4;jiggle=2;curveFitting=1;html=1;exitX=0.5;exitY=1;exitDx=0;exitDy=0;fontFamily=Helvetica;fontSize=12;fontColor=default;startArrow=none;startFill=0;endArrow=classic;endFill=1;entryX=0.5;entryY=0;entryDx=0;entryDy=0;" parent="1" source="101" target="106" edge="1">
                    <mxGeometry relative="1" as="geometry">
                        <mxPoint x="1160" y="-1110" as="targetPoint"/>
                    </mxGeometry>
                </mxCell>
                <mxCell id="107" value="alu_out[7:0]" style="edgeLabel;html=1;align=center;verticalAlign=middle;resizable=0;points=[];fontSize=12;fontFamily=Helvetica;fontColor=default;" parent="105" vertex="1" connectable="0">
                    <mxGeometry x="-0.7347" relative="1" as="geometry">
                        <mxPoint y="-19" as="offset"/>
                    </mxGeometry>
                </mxCell>
                <mxCell id="102" style="edgeStyle=orthogonalEdgeStyle;rounded=0;sketch=0;hachureGap=4;jiggle=2;curveFitting=1;html=1;exitX=1;exitY=0.25;exitDx=0;exitDy=0;exitPerimeter=0;fontFamily=Helvetica;fontSize=12;fontColor=default;startArrow=none;startFill=0;endArrow=classic;endFill=1;entryX=0;entryY=0.25;entryDx=0;entryDy=0;" parent="1" source="29" target="101" edge="1">
                    <mxGeometry relative="1" as="geometry">
                        <mxPoint x="1020" y="-1260" as="targetPoint"/>
                        <Array as="points">
                            <mxPoint x="950" y="-1560"/>
                            <mxPoint x="950" y="-1249"/>
                        </Array>
                    </mxGeometry>
                </mxCell>
                <mxCell id="103" value="instr[3:0]" style="edgeLabel;html=1;align=center;verticalAlign=middle;resizable=0;points=[];fontSize=12;fontFamily=Helvetica;fontColor=default;" parent="102" vertex="1" connectable="0">
                    <mxGeometry x="0.8001" y="-4" relative="1" as="geometry">
                        <mxPoint x="80" y="-5" as="offset"/>
                    </mxGeometry>
                </mxCell>
                <mxCell id="104" value="alu_out[3:0]" style="edgeLabel;html=1;align=center;verticalAlign=middle;resizable=0;points=[];fontSize=12;fontFamily=Helvetica;fontColor=default;" parent="102" vertex="1" connectable="0">
                    <mxGeometry x="-0.8562" y="-2" relative="1" as="geometry">
                        <mxPoint x="-76" y="-3" as="offset"/>
                    </mxGeometry>
                </mxCell>
                <mxCell id="63" value="&lt;p style=&quot;font-size: 12px;&quot;&gt;&lt;font style=&quot;font-size: 12px;&quot;&gt;&lt;span style=&quot;font-size: 12px;&quot;&gt;LR&lt;/span&gt;&lt;/font&gt;&lt;/p&gt;" style="rounded=0;whiteSpace=wrap;html=1;hachureGap=4;fontFamily=Helvetica;fontSize=12;points=[[0,0.33,0,0,0],[0,0.67,0,0,0],[1,0.33,0,0,0],[1,0.67,0,0,0]];fontStyle=1" parent="1" vertex="1">
                    <mxGeometry x="270" y="-1380" width="120" height="60" as="geometry"/>
                </mxCell>
                <mxCell id="96" style="edgeStyle=orthogonalEdgeStyle;rounded=0;sketch=0;hachureGap=4;jiggle=2;curveFitting=1;html=1;exitX=1;exitY=0.5;exitDx=0;exitDy=0;exitPerimeter=0;entryX=1;entryY=0.33;entryDx=0;entryDy=0;entryPerimeter=0;fontFamily=Helvetica;fontSize=12;fontColor=default;startArrow=none;startFill=0;endArrow=classic;endFill=1;" parent="1" source="2" target="63" edge="1">
                    <mxGeometry relative="1" as="geometry">
                        <Array as="points">
                            <mxPoint x="300" y="-1600"/>
                            <mxPoint x="300" y="-1550"/>
                            <mxPoint x="450" y="-1550"/>
                            <mxPoint x="450" y="-1360"/>
                        </Array>
                    </mxGeometry>
                </mxCell>
                <mxCell id="97" value="data[7:0]" style="edgeLabel;html=1;align=center;verticalAlign=middle;resizable=0;points=[];fontSize=12;fontFamily=Helvetica;fontColor=default;" parent="96" vertex="1" connectable="0">
                    <mxGeometry x="0.9267" y="1" relative="1" as="geometry">
                        <mxPoint x="-47" y="-1" as="offset"/>
                    </mxGeometry>
                </mxCell>
                <object label="&lt;span&gt;PC&lt;/span&gt;" id="2">
                    <mxCell style="rounded=0;whiteSpace=wrap;html=1;points=[[0,0.15,0,0,0],[0,0.4,0,0,0],[0,0.65,0,0,0],[0,0.89,0,0,0],[1,0.5,0,0,0]];movable=1;resizable=1;rotatable=1;deletable=1;editable=1;connectable=1;container=0;fontStyle=1" parent="1" vertex="1">
                        <mxGeometry x="170" y="-1640" width="112" height="80" as="geometry"/>
                    </mxCell>
                </object>
                <mxCell id="92" style="edgeStyle=orthogonalEdgeStyle;rounded=0;sketch=0;hachureGap=4;jiggle=2;curveFitting=1;html=1;exitX=1;exitY=0.17;exitDx=0;exitDy=0;exitPerimeter=0;fontFamily=Helvetica;fontSize=12;fontColor=default;startArrow=none;startFill=0;endArrow=classic;endFill=1;entryX=0;entryY=0.4;entryDx=0;entryDy=0;entryPerimeter=0;" parent="1" source="29" target="2" edge="1">
                    <mxGeometry relative="1" as="geometry">
                        <mxPoint x="130" y="-1680" as="targetPoint"/>
                        <Array as="points">
                            <mxPoint x="850" y="-1586"/>
                            <mxPoint x="850" y="-1685"/>
                            <mxPoint x="130" y="-1685"/>
                            <mxPoint x="130" y="-1608"/>
                        </Array>
                    </mxGeometry>
                </mxCell>
                <mxCell id="93" value="ld" style="edgeLabel;html=1;align=center;verticalAlign=middle;resizable=0;points=[];fontSize=12;fontFamily=Helvetica;fontColor=default;" parent="92" vertex="1" connectable="0">
                    <mxGeometry x="0.9702" relative="1" as="geometry">
                        <mxPoint x="22" as="offset"/>
                    </mxGeometry>
                </mxCell>
                <mxCell id="94" value="pc_ld" style="edgeLabel;html=1;align=center;verticalAlign=middle;resizable=0;points=[];fontSize=12;fontFamily=Helvetica;fontColor=default;" parent="92" vertex="1" connectable="0">
                    <mxGeometry x="-0.9707" y="1" relative="1" as="geometry">
                        <mxPoint x="-34" as="offset"/>
                    </mxGeometry>
                </mxCell>
                <mxCell id="73" value="&lt;span&gt;JMP&lt;/span&gt;" style="rounded=0;whiteSpace=wrap;html=1;strokeColor=default;fontFamily=Helvetica;fontSize=12;fontColor=default;fillColor=default;points=[[0,0.5,0,0,0],[1,0.17,0,0,0],[1,0.33,0,0,0],[1,0.5,0,0,0],[1,0.67,0,0,0],[1,0.83,0,0,0]];fontStyle=1" parent="1" vertex="1">
                    <mxGeometry x="170" y="-1520" width="220" height="90" as="geometry"/>
                </mxCell>
                <mxCell id="86" style="edgeStyle=orthogonalEdgeStyle;rounded=0;sketch=0;hachureGap=4;jiggle=2;curveFitting=1;html=1;exitX=0;exitY=0.5;exitDx=0;exitDy=0;exitPerimeter=0;fontFamily=Helvetica;fontSize=12;fontColor=default;startArrow=none;startFill=0;endArrow=classic;endFill=1;entryX=0;entryY=0.65;entryDx=0;entryDy=0;entryPerimeter=0;" parent="1" source="73" target="2" edge="1">
                    <mxGeometry relative="1" as="geometry">
                        <mxPoint x="130" y="-1590" as="targetPoint"/>
                        <Array as="points">
                            <mxPoint x="120" y="-1475"/>
                            <mxPoint x="120" y="-1588"/>
                        </Array>
                    </mxGeometry>
                </mxCell>
                <mxCell id="87" value="out_addr[7:0]" style="edgeLabel;html=1;align=center;verticalAlign=middle;resizable=0;points=[];fontSize=12;fontFamily=Helvetica;fontColor=default;" parent="86" vertex="1" connectable="0">
                    <mxGeometry x="-0.894" y="-1" relative="1" as="geometry">
                        <mxPoint x="51" y="1" as="offset"/>
                    </mxGeometry>
                </mxCell>
                <mxCell id="88" value="addr[7:0]" style="edgeLabel;html=1;align=center;verticalAlign=middle;resizable=0;points=[];fontSize=12;fontFamily=Helvetica;fontColor=default;" parent="86" vertex="1" connectable="0">
                    <mxGeometry x="0.8726" relative="1" as="geometry">
                        <mxPoint x="39" as="offset"/>
                    </mxGeometry>
                </mxCell>
                <mxCell id="74" style="edgeStyle=orthogonalEdgeStyle;sketch=0;hachureGap=4;jiggle=2;curveFitting=1;html=1;exitX=0;exitY=0.78;exitDx=0;exitDy=0;exitPerimeter=0;entryX=1;entryY=0.67;entryDx=0;entryDy=0;entryPerimeter=0;fontFamily=Helvetica;fontSize=12;fontColor=default;startArrow=none;startFill=0;endArrow=classic;endFill=1;rounded=0;" parent="1" source="29" target="73" edge="1">
                    <mxGeometry relative="1" as="geometry">
                        <Array as="points">
                            <mxPoint x="420" y="-1390"/>
                            <mxPoint x="420" y="-1460"/>
                        </Array>
                    </mxGeometry>
                </mxCell>
                <mxCell id="84" value="base_reg_offset[7:0]" style="edgeLabel;html=1;align=center;verticalAlign=middle;resizable=0;points=[];fontSize=12;fontFamily=Helvetica;fontColor=default;" parent="74" vertex="1" connectable="0">
                    <mxGeometry x="0.0007" y="-2" relative="1" as="geometry">
                        <mxPoint x="-88" y="-55" as="offset"/>
                    </mxGeometry>
                </mxCell>
                <mxCell id="95" value="base_reg_offset[7:0]" style="edgeLabel;html=1;align=center;verticalAlign=middle;resizable=0;points=[];fontSize=12;fontFamily=Helvetica;fontColor=default;" parent="74" vertex="1" connectable="0">
                    <mxGeometry x="-0.3919" y="1" relative="1" as="geometry">
                        <mxPoint x="112" as="offset"/>
                    </mxGeometry>
                </mxCell>
                <mxCell id="89" style="edgeStyle=orthogonalEdgeStyle;rounded=0;sketch=0;hachureGap=4;jiggle=2;curveFitting=1;html=1;exitX=1;exitY=0.08;exitDx=0;exitDy=0;exitPerimeter=0;fontFamily=Helvetica;fontSize=12;fontColor=default;startArrow=none;startFill=0;endArrow=classic;endFill=1;entryX=0;entryY=0.15;entryDx=0;entryDy=0;entryPerimeter=0;" parent="1" source="29" target="2" edge="1">
                    <mxGeometry relative="1" as="geometry">
                        <mxPoint x="140" y="-1670" as="targetPoint"/>
                        <Array as="points">
                            <mxPoint x="830" y="-1614"/>
                            <mxPoint x="830" y="-1660"/>
                            <mxPoint x="140" y="-1660"/>
                            <mxPoint x="140" y="-1628"/>
                        </Array>
                    </mxGeometry>
                </mxCell>
                <mxCell id="90" value="rst" style="edgeLabel;html=1;align=center;verticalAlign=middle;resizable=0;points=[];fontSize=12;fontFamily=Helvetica;fontColor=default;" parent="89" vertex="1" connectable="0">
                    <mxGeometry x="0.9466" y="-1" relative="1" as="geometry">
                        <mxPoint x="31" as="offset"/>
                    </mxGeometry>
                </mxCell>
                <mxCell id="91" value="pc_rst" style="edgeLabel;html=1;align=center;verticalAlign=middle;resizable=0;points=[];fontSize=12;fontFamily=Helvetica;fontColor=default;" parent="89" vertex="1" connectable="0">
                    <mxGeometry x="-0.9626" y="-2" relative="1" as="geometry">
                        <mxPoint x="-37" y="-3" as="offset"/>
                    </mxGeometry>
                </mxCell>
                <object label="&lt;span&gt;ROM&lt;/span&gt;" addr="addr" id="20">
                    <mxCell style="rounded=0;whiteSpace=wrap;html=1;points=[[0,0.5,0,0,0],[1,0.26,0,0,0],[1,0.66,0,0,0]];fontStyle=1" parent="1" vertex="1">
                        <mxGeometry x="320" y="-1640" width="120" height="80" as="geometry"/>
                    </mxCell>
                </object>
                <mxCell id="47" style="edgeStyle=orthogonalEdgeStyle;rounded=0;html=1;exitX=0;exitY=0.44;exitDx=0;exitDy=0;exitPerimeter=0;startArrow=none;startFill=0;endArrow=classic;endFill=1;entryX=1;entryY=0.17;entryDx=0;entryDy=0;entryPerimeter=0;" parent="1" source="29" target="73" edge="1">
                    <mxGeometry relative="1" as="geometry">
                        <mxPoint x="450" y="-1499.142857142857" as="targetPoint"/>
                    </mxGeometry>
                </mxCell>
                <mxCell id="78" value="jmp_mode[1:0]" style="edgeLabel;html=1;align=center;verticalAlign=middle;resizable=0;points=[];fontSize=12;fontFamily=Helvetica;fontColor=default;" parent="47" vertex="1" connectable="0">
                    <mxGeometry x="-0.1793" y="-1" relative="1" as="geometry">
                        <mxPoint x="86" as="offset"/>
                    </mxGeometry>
                </mxCell>
                <mxCell id="79" value="jmp_mode[1:0]" style="edgeLabel;html=1;align=center;verticalAlign=middle;resizable=0;points=[];fontSize=12;fontFamily=Helvetica;fontColor=default;" parent="47" vertex="1" connectable="0">
                    <mxGeometry x="-0.2876" relative="1" as="geometry">
                        <mxPoint x="-107" y="-7" as="offset"/>
                    </mxGeometry>
                </mxCell>
                <mxCell id="48" style="edgeStyle=orthogonalEdgeStyle;rounded=0;html=1;exitX=0;exitY=0.56;exitDx=0;exitDy=0;exitPerimeter=0;startArrow=none;startFill=0;endArrow=classic;endFill=1;entryX=1;entryY=0.33;entryDx=0;entryDy=0;entryPerimeter=0;" parent="1" source="29" target="73" edge="1">
                    <mxGeometry relative="1" as="geometry">
                        <mxPoint x="450" y="-1460.857142857143" as="targetPoint"/>
                    </mxGeometry>
                </mxCell>
                <mxCell id="80" value="base_reg_data[7:0]" style="edgeLabel;html=1;align=center;verticalAlign=middle;resizable=0;points=[];fontSize=12;fontFamily=Helvetica;fontColor=default;" parent="48" vertex="1" connectable="0">
                    <mxGeometry x="-0.7418" y="1" relative="1" as="geometry">
                        <mxPoint x="73" y="-1" as="offset"/>
                    </mxGeometry>
                </mxCell>
                <mxCell id="81" value="base_reg_data[7:0]" style="edgeLabel;html=1;align=center;verticalAlign=middle;resizable=0;points=[];fontSize=12;fontFamily=Helvetica;fontColor=default;" parent="48" vertex="1" connectable="0">
                    <mxGeometry x="0.4682" y="-1" relative="1" as="geometry">
                        <mxPoint x="-94" as="offset"/>
                    </mxGeometry>
                </mxCell>
                <mxCell id="49" style="edgeStyle=orthogonalEdgeStyle;rounded=0;html=1;exitX=0;exitY=0.67;exitDx=0;exitDy=0;exitPerimeter=0;startArrow=none;startFill=0;endArrow=classic;endFill=1;entryX=1;entryY=0.5;entryDx=0;entryDy=0;entryPerimeter=0;" parent="1" source="29" target="73" edge="1">
                    <mxGeometry relative="1" as="geometry">
                        <mxPoint x="450" y="-1425.4285714285716" as="targetPoint"/>
                        <Array as="points">
                            <mxPoint x="430" y="-1426"/>
                            <mxPoint x="430" y="-1475"/>
                        </Array>
                    </mxGeometry>
                </mxCell>
                <mxCell id="83" value="base_reg_ld" style="edgeLabel;html=1;align=center;verticalAlign=middle;resizable=0;points=[];fontSize=12;fontFamily=Helvetica;fontColor=default;" parent="49" vertex="1" connectable="0">
                    <mxGeometry x="0.627" y="1" relative="1" as="geometry">
                        <mxPoint x="-66" y="-1" as="offset"/>
                    </mxGeometry>
                </mxCell>
                <mxCell id="51" style="edgeStyle=orthogonalEdgeStyle;rounded=0;html=1;exitX=0;exitY=0.89;exitDx=0;exitDy=0;exitPerimeter=0;startArrow=none;startFill=0;endArrow=classic;endFill=1;entryX=1;entryY=0.67;entryDx=0;entryDy=0;entryPerimeter=0;" parent="1" source="29" target="63" edge="1">
                    <mxGeometry relative="1" as="geometry">
                        <mxPoint x="450" y="-1355.142857142857" as="targetPoint"/>
                        <Array as="points">
                            <mxPoint x="460" y="-1355"/>
                            <mxPoint x="460" y="-1340"/>
                        </Array>
                    </mxGeometry>
                </mxCell>
                <mxCell id="68" value="ld" style="edgeLabel;html=1;align=center;verticalAlign=middle;resizable=0;points=[];fontSize=12;fontFamily=Helvetica;fontColor=default;" parent="51" vertex="1" connectable="0">
                    <mxGeometry x="0.8886" y="1" relative="1" as="geometry">
                        <mxPoint x="-16" as="offset"/>
                    </mxGeometry>
                </mxCell>
                <mxCell id="71" value="lr_ld" style="edgeLabel;html=1;align=center;verticalAlign=middle;resizable=0;points=[];fontSize=12;fontFamily=Helvetica;fontColor=default;" parent="51" vertex="1" connectable="0">
                    <mxGeometry x="-0.6906" y="1" relative="1" as="geometry">
                        <mxPoint x="32" as="offset"/>
                    </mxGeometry>
                </mxCell>
                <mxCell id="42" style="edgeStyle=orthogonalEdgeStyle;html=1;exitX=0;exitY=0.33;exitDx=0;exitDy=0;exitPerimeter=0;startArrow=classic;startFill=1;endArrow=none;endFill=0;rounded=0;" parent="1" source="29" edge="1">
                    <mxGeometry relative="1" as="geometry">
                        <mxPoint x="470" y="-1290" as="targetPoint"/>
                    </mxGeometry>
                </mxCell>
                <mxCell id="43" value="z_flag" style="edgeLabel;html=1;align=center;verticalAlign=middle;resizable=0;points=[];" parent="42" vertex="1" connectable="0">
                    <mxGeometry x="0.3852" y="2" relative="1" as="geometry">
                        <mxPoint x="39" y="-163" as="offset"/>
                    </mxGeometry>
                </mxCell>
                <mxCell id="44" style="edgeStyle=elbowEdgeStyle;html=1;exitX=1;exitY=0.66;exitDx=0;exitDy=0;exitPerimeter=0;entryX=0;entryY=0.22;entryDx=0;entryDy=0;entryPerimeter=0;startArrow=none;startFill=0;endArrow=classic;endFill=1;rounded=0;" parent="1" source="20" target="29" edge="1">
                    <mxGeometry relative="1" as="geometry"/>
                </mxCell>
                <mxCell id="45" value="arg[7:0]" style="edgeLabel;html=1;align=center;verticalAlign=middle;resizable=0;points=[];" parent="44" vertex="1" connectable="0">
                    <mxGeometry x="0.3153" y="-1" relative="1" as="geometry">
                        <mxPoint x="-49" y="-21" as="offset"/>
                    </mxGeometry>
                </mxCell>
                <mxCell id="31" style="edgeStyle=orthogonalEdgeStyle;rounded=0;html=1;exitX=1;exitY=0.26;exitDx=0;exitDy=0;exitPerimeter=0;entryX=0;entryY=0.11;entryDx=0;entryDy=0;entryPerimeter=0;strokeWidth=1;startArrow=none;startFill=0;endArrow=classic;endFill=1;" parent="1" source="20" target="29" edge="1">
                    <mxGeometry relative="1" as="geometry"/>
                </mxCell>
                <mxCell id="36" value="instr[7:0]" style="edgeLabel;html=1;align=center;verticalAlign=middle;resizable=0;points=[];" parent="31" vertex="1" connectable="0">
                    <mxGeometry x="-0.4229" y="1" relative="1" as="geometry">
                        <mxPoint x="-44" as="offset"/>
                    </mxGeometry>
                </mxCell>
                <mxCell id="38" value="instr[7:0]" style="edgeLabel;html=1;align=center;verticalAlign=middle;resizable=0;points=[];" parent="31" vertex="1" connectable="0">
                    <mxGeometry x="0.5371" y="2" relative="1" as="geometry">
                        <mxPoint x="39" as="offset"/>
                    </mxGeometry>
                </mxCell>
                <mxCell id="18" style="edgeStyle=none;rounded=1;html=1;exitX=1;exitY=0.5;exitDx=0;exitDy=0;exitPerimeter=0;strokeWidth=1;startArrow=none;startFill=0;endArrow=classic;endFill=1;entryX=0;entryY=0.5;entryDx=0;entryDy=0;entryPerimeter=0;" parent="1" source="2" target="20" edge="1">
                    <mxGeometry relative="1" as="geometry">
                        <mxPoint x="410" y="-1600" as="targetPoint"/>
                    </mxGeometry>
                </mxCell>
                <mxCell id="19" value="pc_out[7:0]" style="edgeLabel;html=1;align=center;verticalAlign=middle;resizable=1;points=[];rotation=270;movable=1;rotatable=1;deletable=1;editable=1;connectable=1;container=0;" parent="18" vertex="1" connectable="0">
                    <mxGeometry relative="1" as="geometry">
                        <mxPoint x="-31" as="offset"/>
                    </mxGeometry>
                </mxCell>
                <mxCell id="22" value="addr[7:0]" style="edgeLabel;html=1;align=center;verticalAlign=middle;resizable=0;points=[];rotation=-90;" parent="18" vertex="1" connectable="0">
                    <mxGeometry x="0.248" y="2" relative="1" as="geometry">
                        <mxPoint x="24" as="offset"/>
                    </mxGeometry>
                </mxCell>
                <mxCell id="11" style="edgeStyle=none;html=1;exitX=0;exitY=0.89;exitDx=0;exitDy=0;exitPerimeter=0;startArrow=classicThin;startFill=1;endArrow=none;endFill=0;movable=1;resizable=1;rotatable=1;deletable=1;editable=1;connectable=1;" parent="1" source="2" edge="1">
                    <mxGeometry relative="1" as="geometry">
                        <mxPoint x="140" y="-1568.6666666666665" as="targetPoint"/>
                    </mxGeometry>
                </mxCell>
                <mxCell id="16" value="clk" style="edgeLabel;html=1;align=center;verticalAlign=middle;resizable=1;points=[];movable=1;rotatable=1;deletable=1;editable=1;connectable=1;container=0;" parent="11" vertex="1" connectable="0">
                    <mxGeometry x="0.3112" relative="1" as="geometry">
                        <mxPoint x="29" as="offset"/>
                    </mxGeometry>
                </mxCell>
                <mxCell id="35" value="" style="shape=image;verticalLabelPosition=bottom;labelBackgroundColor=default;verticalAlign=top;aspect=fixed;imageAspect=0;image=data:image/png,iVBORw0KGgoAAAANSUhEUgAAAAkAAAAJAQMAAADaX5RTAAAABlBMVEV7mr3///+wksspAAAAAnRSTlP/AOW3MEoAAAAdSURBVAgdY9jXwCDDwNDRwHCwgeExmASygSL7GgB12QiqNHZZIwAAAABJRU5ErkJggg==;" parent="1" vertex="1">
                    <mxGeometry width="9" height="9" as="geometry"/>
                </mxCell>
                <mxCell id="46" value="arg[7:0]" style="edgeLabel;html=1;align=center;verticalAlign=middle;resizable=0;points=[];" parent="1" vertex="1" connectable="0">
                    <mxGeometry x="513" y="-1570" as="geometry"/>
                </mxCell>
                <mxCell id="64" style="edgeStyle=orthogonalEdgeStyle;hachureGap=4;html=1;exitX=0;exitY=0.33;exitDx=0;exitDy=0;exitPerimeter=0;fontFamily=Helvetica;fontSize=12;fontColor=default;entryX=1;entryY=0.83;entryDx=0;entryDy=0;entryPerimeter=0;rounded=0;" parent="1" source="63" target="73" edge="1">
                    <mxGeometry relative="1" as="geometry">
                        <mxPoint x="230" y="-1360.2857142857142" as="targetPoint"/>
                        <Array as="points">
                            <mxPoint x="260" y="-1360"/>
                            <mxPoint x="260" y="-1405"/>
                            <mxPoint x="410" y="-1405"/>
                            <mxPoint x="410" y="-1445"/>
                        </Array>
                    </mxGeometry>
                </mxCell>
                <mxCell id="67" value="out[7:0]" style="edgeLabel;html=1;align=center;verticalAlign=middle;resizable=0;points=[];fontSize=12;fontFamily=Helvetica;fontColor=default;" parent="64" vertex="1" connectable="0">
                    <mxGeometry x="-0.6359" y="2" relative="1" as="geometry">
                        <mxPoint x="33" y="38" as="offset"/>
                    </mxGeometry>
                </mxCell>
                <mxCell id="85" value="lr_addr[7:0]" style="edgeLabel;html=1;align=center;verticalAlign=middle;resizable=0;points=[];fontSize=12;fontFamily=Helvetica;fontColor=default;" parent="64" vertex="1" connectable="0">
                    <mxGeometry x="0.7527" y="-1" relative="1" as="geometry">
                        <mxPoint x="-56" y="-13" as="offset"/>
                    </mxGeometry>
                </mxCell>
                <mxCell id="65" style="edgeStyle=none;sketch=0;hachureGap=4;jiggle=2;curveFitting=1;html=1;exitX=0;exitY=0.67;exitDx=0;exitDy=0;exitPerimeter=0;fontFamily=Helvetica;fontSize=12;fontColor=default;startArrow=classic;startFill=1;endArrow=none;endFill=0;" parent="1" source="63" edge="1">
                    <mxGeometry relative="1" as="geometry">
                        <mxPoint x="230" y="-1339.7142857142858" as="targetPoint"/>
                    </mxGeometry>
                </mxCell>
                <mxCell id="66" value="clk" style="edgeLabel;html=1;align=center;verticalAlign=middle;resizable=0;points=[];fontSize=12;fontFamily=Helvetica;fontColor=default;" parent="65" vertex="1" connectable="0">
                    <mxGeometry x="0.4073" y="1" relative="1" as="geometry">
                        <mxPoint x="37" as="offset"/>
                    </mxGeometry>
                </mxCell>
                <mxCell id="82" value="base_reg_ld" style="edgeLabel;html=1;align=center;verticalAlign=middle;resizable=0;points=[];fontSize=12;fontFamily=Helvetica;fontColor=default;" parent="1" vertex="1" connectable="0">
                    <mxGeometry x="526" y="-1426" as="geometry"/>
                </mxCell>
                <mxCell id="108" style="edgeStyle=orthogonalEdgeStyle;rounded=0;sketch=0;hachureGap=4;jiggle=2;curveFitting=1;html=1;exitX=0.5;exitY=1;exitDx=0;exitDy=0;fontFamily=Helvetica;fontSize=12;fontColor=default;startArrow=none;startFill=0;endArrow=classic;endFill=1;entryX=0.25;entryY=0;entryDx=0;entryDy=0;" parent="1" source="106" target="101" edge="1">
                    <mxGeometry relative="1" as="geometry">
                        <mxPoint x="930" y="-1360" as="targetPoint"/>
                        <Array as="points">
                            <mxPoint x="1160" y="-970"/>
                            <mxPoint x="980" y="-970"/>
                            <mxPoint x="980" y="-1330"/>
                            <mxPoint x="1080" y="-1330"/>
                        </Array>
                    </mxGeometry>
                </mxCell>
                <mxCell id="109" value="in_a[7:0]" style="edgeLabel;html=1;align=center;verticalAlign=middle;resizable=0;points=[];fontSize=12;fontFamily=Helvetica;fontColor=default;" parent="108" vertex="1" connectable="0">
                    <mxGeometry x="0.9124" y="2" relative="1" as="geometry">
                        <mxPoint y="47" as="offset"/>
                    </mxGeometry>
                </mxCell>
                <mxCell id="112" style="edgeStyle=orthogonalEdgeStyle;rounded=0;sketch=0;hachureGap=4;jiggle=2;curveFitting=1;html=1;exitX=0.25;exitY=1;exitDx=0;exitDy=0;exitPerimeter=0;fontFamily=Helvetica;fontSize=12;fontColor=default;startArrow=none;startFill=0;endArrow=classic;endFill=1;" parent="1" source="106" edge="1">
                    <mxGeometry relative="1" as="geometry">
                        <mxPoint x="1100.3529411764707" y="-990.0000000000002" as="targetPoint"/>
                    </mxGeometry>
                </mxCell>
                <mxCell id="113" value="z_out" style="edgeLabel;html=1;align=center;verticalAlign=middle;resizable=0;points=[];fontSize=12;fontFamily=Helvetica;fontColor=default;" parent="112" vertex="1" connectable="0">
                    <mxGeometry x="-0.6271" relative="1" as="geometry">
                        <mxPoint y="-17" as="offset"/>
                    </mxGeometry>
                </mxCell>
                <mxCell id="120" style="edgeStyle=none;hachureGap=4;html=1;exitX=0;exitY=0.75;exitDx=0;exitDy=0;exitPerimeter=0;fontFamily=Helvetica;fontSize=12;endArrow=none;endFill=0;startArrow=classic;startFill=1;" edge="1" parent="1" source="119">
                    <mxGeometry relative="1" as="geometry">
                        <mxPoint x="1380" y="-1030" as="targetPoint"/>
                    </mxGeometry>
                </mxCell>
                <mxCell id="122" value="clk" style="edgeLabel;html=1;align=center;verticalAlign=middle;resizable=0;points=[];fontSize=12;fontFamily=Helvetica;" vertex="1" connectable="0" parent="120">
                    <mxGeometry x="-0.7" y="1" relative="1" as="geometry">
                        <mxPoint x="16" y="-1" as="offset"/>
                    </mxGeometry>
                </mxCell>
            </root>
        </mxGraphModel>
    </diagram>
</mxfile>